<?xml version="1.0" encoding="UTF-8"?>
<svg id="Capa_1" data-name="Capa 1" xmlns="http://www.w3.org/2000/svg" viewBox="0 0 35 35">
  <defs>
    <style>
      .cls-1 {
        fill: #fff;
      }

      .cls-2 {
        fill: #f15c2e;
      }
    </style>
  </defs>
  <circle class="cls-2" cx="17.5" cy="17.5" r="17.5"/>
  <g>
    <path class="cls-1" d="m28.38,14.04c0-1.86-.06-3.67-1.4-5.21-.94-1.08-2-1.95-3.38-2.11-1.36-.16-2.75-.27-4.14-.23-2.5.08-5,.03-7.5.14-1.5.06-2.65.77-3.59,1.63-1.15,1.04-1.77,2.5-1.74,4.15.03,1.62,0,3.24,0,4.86,0,1.65-.05,3.3.02,4.95.04,1,.05,2.01.59,2.95,1.31,2.29,3.39,3.24,5.91,3.3,2.9.08,5.8.06,8.69,0,1.44-.03,2.83-.43,4.02-1.3,1.92-1.4,2.5-3.41,2.51-5.66.01-2.49,0-4.98,0-7.48Zm-4.08,11.87c-.99.62-2.11.47-3.16.53-3.19.18-6.39.08-9.58-.16-.98-.07-1.73-.79-2.25-1.59-.66-1.03-.91-2.23-.96-3.42-.11-2.87-.26-5.76.1-8.62.09-.7.32-1.4.62-2.05.65-1.45,2-1.98,3.43-2.09,1.65-.13,8.73-.28,10.55.14,2.24.52,3.25,1.74,3.3,4,.07,3.18.06,6.36,0,9.54-.03,1.56-.68,2.84-2.06,3.71Z"/>
    <path class="cls-1" d="m17.52,11.78c-2.26-.09-5.75,1.99-5.7,5.54-.24,2.77,2.36,5.62,5.5,5.69,3.36.08,5.57-2.76,5.79-4.98.35-3.4-2.53-6.12-5.59-6.25Zm-.1,9.3c-1.78.08-3.67-1.69-3.56-3.66,0-1.96,1.53-3.48,3.58-3.5,2.34-.03,3.62,1.71,3.64,3.57.02,2.06-1.6,3.5-3.66,3.59Z"/>
    <circle class="cls-1" cx="23.39" cy="11.5" r="1.29"/>
  </g>
</svg>