<?xml version="1.0" encoding="UTF-8"?>
<svg id="Capa_1" data-name="Capa 1" xmlns="http://www.w3.org/2000/svg" viewBox="0 0 35 35">
  <defs>
    <style>
      .cls-1 {
        fill: #fff;
      }

      .cls-2 {
        fill: #81bc50;
      }
    </style>
  </defs>
  <circle class="cls-2" cx="17.5" cy="17.5" r="17.5"/>
  <g>
    <path class="cls-1" d="m11.53,22.34c-.48.16-.97.33-1.46.49-.73.23-1.49.14-2.23.16-.38.01-.69.14-.78.56-.07.33.06.56.34.75,1.17.79,2.48,1.25,3.83,1.53,3,.62,5.87.17,8.6-1.2,1.76-.88,3.17-2.19,4.26-3.75,1.35-1.93,2.03-4.16,2.22-6.52.04-.54.19-1.01.64-1.43.62-.58,1.02-1.34,1-2.25-.02-.93-.29-1.06-1.16-.73-.78.3-1.66.59-2.42.02-.64-.49-1.28-.86-2.1-1.01-1.99-.36-4.66.78-5.24,3.01-.1.38-.28.74-.26,1.15.02.42-.22.53-.57.45-.75-.17-1.53-.28-2.24-.56-1.61-.64-3-1.63-4.2-2.88-.71-.74-1.3-.59-1.7.38-.45,1.1-.42,2.22-.15,3.35.06.25.21.48.06.78-.54,1.08-.08,2.87.92,3.54.16.11.3.16.27.36-.45,2.75,1.53,3.62,2.35,3.8Z"/>
    <path class="cls-2" d="m26.26,11.75l.31-.45-2.39.03c-.28-.15-.55-.32-.8-.51-.84-.62-1.66-.82-2.64-.58-1.31.32-2.93,1.69-2.75,3.5.13,1.29-.08,1.42-1.39,1.32-1.53-.11-2.97-.64-4.32-1.31-.97-.48-1.84-1.15-2.64-1.9-.14-.13-.31-.36-.48-.23-.19.14-.16.35-.15.55.06,1.05.57,1.89,1.3,2.61.33.33.65.64.47,1.16-.18.52-.63.36-.97.31-.86-.12-.74.38-.56.67.44.72,1.19,1.18,2.15,1.32.37.06.82.22.89.69.07.48-.33.68-.68.88-.04.02-.1.02-.14.04-.4.16-.45,1.72,2.15,1.5.32-.03.52.18.65.43.12.24-.08.4-.21.59-.35.5-2.5,1.61-3.65,1.81.37.02,2.08,1.07,6.77.07,2.49-.7,4.5-2.28,5.94-4.41.96-1.42,1.49-3.07,1.67-4.79.05-.53.13-1.04.27-1.52l1.21-1.76s0,0,0-.01Z"/>
  </g>
</svg>